<?xml version="1.0" encoding="UTF-8" standalone="no"?>
<svg
   xmlns:dc="http://purl.org/dc/elements/1.1/"
   xmlns:cc="http://creativecommons.org/ns#"
   xmlns:rdf="http://www.w3.org/1999/02/22-rdf-syntax-ns#"
   xmlns:svg="http://www.w3.org/2000/svg"
   xmlns="http://www.w3.org/2000/svg"
   xmlns:sodipodi="http://sodipodi.sourceforge.net/DTD/sodipodi-0.dtd"
   xmlns:inkscape="http://www.inkscape.org/namespaces/inkscape"
   version="1.1"
   x="0px"
   y="0px"
   viewBox="0 0 100 100"
   enable-background="new 0 0 100 100"
   xml:space="preserve"
   id="svg2"
   inkscape:version="0.91 r13725"
   sodipodi:docname="imagen1'.svg"
   width="100"
   height="100"><metadata
     id="metadata24"><rdf:RDF><cc:Work
         rdf:about=""><dc:format>image/svg+xml</dc:format><dc:type
           rdf:resource="http://purl.org/dc/dcmitype/StillImage" /><dc:title></dc:title></cc:Work></rdf:RDF></metadata><defs
     id="defs22" /><sodipodi:namedview
     pagecolor="#ffffff"
     bordercolor="#666666"
     borderopacity="1"
     objecttolerance="10"
     gridtolerance="10"
     guidetolerance="10"
     inkscape:pageopacity="0"
     inkscape:pageshadow="2"
     inkscape:window-width="1366"
     inkscape:window-height="705"
     id="namedview20"
     showgrid="false"
     inkscape:zoom="4.304"
     inkscape:cx="50"
     inkscape:cy="53.20632"
     inkscape:window-x="-8"
     inkscape:window-y="-8"
     inkscape:window-maximized="1"
     inkscape:current-layer="svg2" /><g
     id="g4"
     transform="matrix(1.1112233,0,0,1.1112233,-7.483493,-5.1230132)"><path
       d="m 32.85,23.525 -7.531,-7.533 c 2.488,-2.487 2.486,-6.521 -0.002,-9.01 -2.487,-2.487 -6.52,-2.487 -9.009,0 -1.586,1.586 -2.156,3.801 -1.721,5.842 -2.042,-0.436 -4.255,0.135 -5.842,1.721 -2.486,2.488 -2.486,6.521 0,9.01 2.489,2.488 6.523,2.488 9.012,0 l 7.462,7.463 c 2.119,-2.895 4.7,-5.426 7.631,-7.493 z"
       id="path6"
       inkscape:connector-curvature="0" /><path
       d="m 85.65,76.326 -7.109,-7.11 c -1.768,2.515 -3.893,4.792 -6.334,6.75 l 0,2.037 5.883,5.884 c -2.488,2.489 -2.488,6.521 0,9.012 2.486,2.487 6.523,2.487 9.01,0 1.586,-1.586 2.154,-3.801 1.721,-5.843 2.041,0.437 4.254,-0.134 5.844,-1.72 2.486,-2.489 2.486,-6.523 0,-9.01 -2.491,-2.489 -6.524,-2.489 -9.015,0 z"
       id="path8"
       inkscape:connector-curvature="0" /><path
       d="m 78.189,31.018 7.461,-7.461 c 2.49,2.486 6.523,2.486 9.01,-0.002 2.49,-2.488 2.49,-6.521 0,-9.01 -1.586,-1.585 -3.799,-2.156 -5.84,-1.722 0.434,-2.04 -0.135,-4.255 -1.721,-5.841 -2.486,-2.487 -6.523,-2.487 -9.01,0 -2.488,2.488 -2.488,6.522 0,9.012 l -7.533,7.531 c 2.934,2.068 5.514,4.6 7.633,7.493 z"
       id="path10"
       inkscape:connector-curvature="0" /><path
       d="m 24.868,69.216 -7.11,7.11 c -2.488,-2.489 -6.522,-2.489 -9.012,0 -2.486,2.486 -2.486,6.521 0,9.008 1.587,1.588 3.8,2.158 5.843,1.722 -0.437,2.042 0.134,4.257 1.72,5.843 2.489,2.487 6.521,2.487 9.011,0 2.488,-2.489 2.488,-6.522 0,-9.012 l 5.884,-5.884 0,-2.037 c -2.445,-1.958 -4.57,-4.236 -6.336,-6.75 z"
       id="path12"
       inkscape:connector-curvature="0" /><path
       d="m 35.235,73.95 0,8.735 32.937,0 0,-8.735 c 7.439,-5.202 12.311,-13.827 12.311,-23.594 0,-15.894 -12.887,-28.778 -28.779,-28.778 -15.893,0 -28.779,12.885 -28.779,28.778 -0.001,9.767 4.87,18.392 12.31,23.594 z M 62.404,47.256 c 3.877,0 7.023,3.146 7.023,7.022 0,3.88 -3.146,7.023 -7.023,7.023 -3.879,0 -7.023,-3.144 -7.023,-7.023 0,-3.877 3.144,-7.022 7.023,-7.022 z m -7.681,20.882 c 1.281,0 2.322,1.04 2.322,2.323 0,1.283 -1.041,2.322 -2.322,2.322 -1.283,0 -2.324,-1.039 -2.324,-2.322 0,-1.283 1.04,-2.323 2.324,-2.323 z m -3.713,2.323 c 0,1.283 -1.041,2.322 -2.326,2.322 -1.281,0 -2.32,-1.039 -2.32,-2.322 0,-1.283 1.039,-2.323 2.32,-2.323 1.285,0 2.326,1.04 2.326,2.323 z M 41.003,47.256 c 3.878,0 7.023,3.146 7.023,7.022 0,3.88 -3.146,7.023 -7.023,7.023 -3.877,0 -7.022,-3.144 -7.022,-7.023 0,-3.877 3.144,-7.022 7.022,-7.022 z"
       id="path14"
       inkscape:connector-curvature="0" /></g></svg>