<?xml version="1.0" encoding="utf-8"?>
<!-- Generator: Adobe Illustrator 19.0.0, SVG Export Plug-In . SVG Version: 6.00 Build 0)  -->
<svg version="1.1" id="Layer_1" xmlns="http://www.w3.org/2000/svg" xmlns:xlink="http://www.w3.org/1999/xlink" x="0px" y="0px"
	 viewBox="0 0 100 100" style="enable-background:new 0 0 100 100;" xml:space="preserve">
<style type="text/css">
	.st0{fill:#010101;}
</style>
<g id="XMLID_2_">
	<path id="XMLID_8_" class="st0" d="M75.9,15.6l-15.8-3.8l2.2,9l-6.6,4.8l5.2,7.7l-5.2,3.5l2.7,8.8l-3.9,6.1l2.5,6.7l-3.2,8.5
		l-0.3,11.9l12.2,1.7l21.5,4.2l12.7-64.4L75.9,15.6z M56.8,62.2c0.9,0,1.7-0.6,1.9-1.9l3-15.2l1.3,0.3l-3.8,19.3l5.7,1.1l0.4-2
		l1.3,0.2l-0.4,2l5.7,1.1l3.8-19.3l1.2,0.2l-3,15.2c-0.6,3,3.4,3.8,4,0.8l3.1-15.5c0.7-3.4-0.7-7.1-4.6-7.8L65,38.5
		c-2.9-0.6-5.3,0.9-6.5,3.4l-1.4-4.6l5.5-3.7l-5.2-7.8l6.3-4.6l-0.9-3.7L94,23.7l-9.3,47L55.8,65L56.8,62.2z"/>
	<path id="XMLID_7_" class="st0" d="M71.3,28.2c-2.8-0.6-5.5,1.3-6.1,4.1c-0.6,2.8,1.3,5.5,4.1,6.1c2.8,0.6,5.5-1.3,6.1-4.1
		C75.9,31.4,74.1,28.7,71.3,28.2z"/>
	<path id="XMLID_6_" class="st0" d="M31.9,40.4c2.8-0.3,4.8-2.9,4.5-5.7c-0.3-2.8-2.9-4.8-5.7-4.5c-2.8,0.3-4.8,2.9-4.5,5.7
		C26.6,38.7,29.1,40.7,31.9,40.4z"/>
	<path id="XMLID_3_" class="st0" d="M46.5,57.9l-4.4-5.4l1.8-6.9l-5.1-7.2l4.1-5.2l-7.4-5.8l4.6-6.3l-5-8l-8.6,1.7L0.2,17.8
		l7.9,65.2l33.1-4l8.2-0.3l-3.4-11.3L46.5,57.9z M38.6,20.9l-4.8,6.6l7.3,5.7l-3.9,5l5.2,7.5l-0.3,1.2l-1.1-2.5
		c-0.7-1.6-2.5-4.3-6.1-3.9l-8.6,1c-3.6,0.4-4.7,3.5-4.9,5.2l-2.6,14.9c-0.5,3.2,3.6,3.9,4.2,0.9L25.3,49l1.1-0.1l-2.9,17.9
		l20.4-2.5l-7.1-16.7l1.1-0.1l5.5,12.7c0.4,0.9,1,1.3,1.7,1.4l-0.1,3.5l-33.3,4.1L5.8,21.6l30.9-3.8L38.6,20.9z"/>
</g>
</svg>
